<?xml version="1.0" encoding="UTF-8"?>
<!DOCTYPE svg PUBLIC "-//W3C//DTD SVG 1.1//EN" "http://www.w3.org/Graphics/SVG/1.1/DTD/svg11.dtd">
<!-- Creator: CorelDRAW X6 -->
<svg xmlns="http://www.w3.org/2000/svg" xml:space="preserve" width="29.1514mm" height="25.8124mm" version="1.1" style="shape-rendering:geometricPrecision; text-rendering:geometricPrecision; image-rendering:optimizeQuality; fill-rule:evenodd; clip-rule:evenodd"
viewBox="0 0 565 500"
 xmlns:xlink="http://www.w3.org/1999/xlink">
 <defs>
  <style type="text/css">
   <![CDATA[
    .str2 {stroke:#FEFEFE;stroke-width:1.47587}
    .str1 {stroke:#FEFEFE;stroke-width:9.68416}
    .str0 {stroke:#718FC8;stroke-width:38.7366}
    .fil0 {fill:none}
    .fil2 {fill:none;fill-rule:nonzero}
    .fil1 {fill:#3E4095;fill-rule:nonzero}
   ]]>
  </style>
 </defs>
 <g id="Layer_x0020_1">
  <metadata id="CorelCorpID_0Corel-Layer"/>
  <g id="_656969504">
   <circle class="fil0 str0" cx="274" cy="250" r="231"/>
   <polygon class="fil1" points="559,22 533,332 495,326 478,138 402,231 419,255 380,273 283,168 259,332 220,336 203,24 285,31 378,189 462,44 "/>
   <polygon id="1" class="fil2 str1" points="559,22 533,332 495,326 478,138 402,231 419,255 380,273 283,168 259,332 220,336 203,24 285,31 378,189 462,44 "/>
   <path class="fil1" d="M66 445l-6 -86c-2,14 -4,28 -8,40 -4,13 -8,22 -13,29 -5,7 -9,12 -14,15 -5,2 -10,4 -15,4 -3,0 -5,-1 -7,-2 -1,-1 -2,-3 -2,-4 0,-2 0,-3 1,-4 2,-1 3,-2 5,-2 1,0 3,1 5,1 3,1 4,1 6,1 2,0 5,-1 8,-3 4,-3 8,-8 12,-15 4,-7 8,-17 11,-30 3,-13 5,-25 6,-37 -12,0 -22,3 -30,9 -6,5 -9,10 -9,16 0,3 2,6 4,9 2,2 3,4 3,5 0,2 -1,3 -2,4 -1,1 -2,1 -3,1 -2,0 -4,-1 -5,-3 -2,-4 -4,-7 -4,-12 0,-6 2,-12 7,-17 4,-6 9,-10 16,-13 8,-3 16,-4 26,-4 5,0 9,-1 12,-2 0,5 0,8 0,8 0,0 0,1 0,3l5 61c13,-22 26,-41 38,-55 9,-11 16,-18 23,-21 -4,10 -8,23 -12,40l-10 38c0,2 -1,6 -2,10l-2 8c4,1 8,2 11,2 3,0 6,-1 9,-1l-1 4c-3,1 -5,1 -7,1 -2,0 -5,0 -9,-1 -3,0 -6,0 -9,0 -3,0 -6,0 -9,1 3,-7 6,-18 9,-31l6 -24c3,-11 5,-18 7,-22 -4,5 -11,14 -20,27 -7,10 -15,24 -24,40l-7 12z"/>
   <path id="1" class="fil1" d="M197 373l5 -2 -6 21c-2,8 -5,17 -7,28 -1,5 -1,9 -1,11 0,1 0,2 2,2 0,0 2,0 4,-2 3,-1 6,-4 9,-7l3 3c-7,6 -10,9 -12,10 -4,3 -7,4 -10,5 -2,1 -4,2 -6,2 -1,0 -2,-1 -3,-1 -1,-1 -1,-2 -1,-3 0,-1 0,-2 1,-3l3 -11c-5,5 -10,10 -17,14 -3,2 -7,4 -10,4 -3,0 -6,-2 -7,-4 -3,-3 -4,-7 -4,-11 0,-6 2,-12 5,-19 3,-7 7,-13 12,-19 5,-6 10,-10 16,-13 4,-2 10,-3 17,-3 1,0 3,0 5,1l2 -3zm-10 12c-3,-1 -6,-1 -8,-1 -4,0 -8,1 -12,4 -4,3 -7,7 -10,14 -3,7 -5,14 -5,21 0,3 1,6 2,8 1,1 3,2 5,2 4,0 8,-2 12,-6 4,-4 7,-10 9,-17l7 -25z"/>
   <path id="2" class="fil1" d="M255 424l2 5c-13,10 -24,15 -33,15 -4,0 -8,-2 -10,-5 -2,-4 -3,-8 -3,-13 0,-8 2,-17 7,-26 4,-9 10,-16 16,-21 5,-3 11,-5 17,-5 4,0 7,1 9,2 2,2 3,3 3,6 0,1 0,3 -1,4 -1,1 -3,1 -5,1 -2,0 -4,-1 -7,-2 -3,-2 -6,-3 -8,-3 -2,0 -5,1 -8,3 -2,3 -5,7 -7,14 -2,7 -3,14 -3,21 0,5 1,9 3,12 1,2 3,3 6,3 6,0 13,-4 22,-11z"/>
   <path id="3" class="fil1" d="M331 424l2 3c-5,6 -10,10 -15,13 -4,2 -7,4 -9,4 -2,0 -3,-1 -4,-3 -2,-1 -2,-4 -2,-7 0,-2 0,-5 1,-9 1,-4 4,-13 8,-26 1,-7 2,-11 2,-12 0,-2 -1,-3 -2,-3 -3,0 -5,2 -9,4 -4,3 -9,7 -12,12 -3,3 -4,7 -6,13l-6 28 -12 0c3,-9 5,-17 6,-23l12 -51c2,-9 5,-17 8,-22 4,-5 8,-9 14,-12 5,-3 11,-5 17,-5 2,0 4,1 5,2 1,1 2,3 2,4 0,2 -1,3 -2,4 -1,1 -3,2 -5,2 -2,0 -3,0 -5,0 -5,-1 -8,-2 -10,-2 -2,0 -4,1 -6,3 -1,2 -3,7 -5,14l-9 40c7,-7 14,-12 21,-17 5,-3 8,-4 11,-4 2,0 3,1 5,2 1,1 1,3 1,5 0,2 0,4 0,5 -1,3 -3,9 -5,17 -4,12 -6,19 -6,22 -1,3 -1,5 -1,7 0,1 0,2 0,2 1,1 1,1 2,1 1,0 3,-2 7,-5 2,-1 4,-3 7,-6z"/>
   <path id="4" class="fil1" d="M381 421l2 4c-13,12 -24,18 -33,18 -4,0 -7,-1 -9,-4 -2,-2 -3,-6 -3,-12 0,-11 4,-23 11,-34 7,-13 17,-19 28,-19 3,0 6,1 8,3 2,2 3,4 3,8 0,3 -1,6 -3,10 -3,3 -7,7 -13,10 -3,2 -10,5 -20,10 -1,3 -1,5 -1,8 0,4 1,6 2,8 1,1 3,2 5,2 2,0 5,-1 7,-2 4,-1 9,-5 16,-10zm-28 -11c8,-4 15,-8 19,-13 3,-3 5,-6 5,-9 0,-2 -1,-4 -2,-5 -1,-2 -3,-2 -5,-2 -2,0 -4,0 -6,2 -2,2 -4,5 -6,9 -2,6 -4,12 -5,18z"/>
   <path id="5" class="fil1" d="M417 362l13 -5 -6 22 16 0 -1 6 -16 0 -7 27c-3,8 -4,13 -4,17 0,1 1,2 1,3 1,0 2,1 3,1 1,0 4,-1 7,-3 5,-3 9,-6 13,-9l3 3c-12,9 -19,15 -23,17 -4,2 -7,3 -10,3 -2,0 -3,-1 -4,-3 -2,-1 -2,-3 -2,-7 0,-3 1,-9 3,-17l8 -32 -13 0 1 -6 13 0 5 -17z"/>
   <path id="6" class="fil1" d="M489 421l3 4c-13,12 -25,18 -34,18 -4,0 -7,-1 -9,-4 -2,-2 -3,-6 -3,-12 0,-11 4,-23 11,-34 8,-13 17,-19 28,-19 3,0 6,1 8,3 2,2 3,4 3,8 0,3 -1,6 -3,10 -3,3 -7,7 -13,10 -3,2 -10,5 -20,10 0,3 -1,5 -1,8 0,4 1,6 2,8 1,1 3,2 5,2 3,0 5,-1 8,-2 3,-1 8,-5 15,-10zm-28 -11c9,-4 15,-8 19,-13 3,-3 5,-6 5,-9 0,-2 -1,-4 -2,-5 -1,-2 -3,-2 -5,-2 -2,0 -4,0 -6,2 -2,2 -4,5 -6,9 -2,6 -4,12 -5,18z"/>
   <path id="7" class="fil1" d="M538 374c5,0 8,1 11,3 2,2 4,4 4,6 0,2 -1,3 -2,4 -1,1 -2,1 -4,1 -1,0 -2,0 -3,0 0,-1 -1,-2 -3,-4 -2,-3 -5,-5 -7,-5 -3,0 -5,1 -6,3 -2,1 -3,3 -3,6 0,2 1,4 2,6 1,2 4,6 8,10 6,6 9,12 9,18 0,6 -3,11 -7,15 -5,4 -11,6 -19,6 -6,0 -11,-1 -14,-4 -3,-2 -5,-5 -5,-9 0,-2 1,-4 2,-5 1,-1 2,-2 4,-2 2,0 3,1 4,2 1,1 2,2 2,3 0,1 0,2 -1,2 0,1 0,2 0,2 0,2 1,3 3,5 1,1 3,2 6,2 3,0 5,-1 7,-2 2,-1 4,-2 5,-4 2,-2 2,-4 2,-6 0,-2 0,-4 -1,-6 -2,-2 -4,-5 -8,-10 -6,-6 -9,-12 -9,-18 0,-5 2,-9 7,-13 4,-4 9,-6 16,-6z"/>
   <path id="8" class="fil2 str2" d="M66 445l-6 -86c-2,14 -4,28 -8,40 -4,13 -8,22 -13,29 -5,7 -9,12 -14,15 -5,2 -10,4 -15,4 -3,0 -5,-1 -7,-2 -1,-1 -2,-3 -2,-4 0,-2 0,-3 1,-4 2,-1 3,-2 5,-2 1,0 3,1 5,1 3,1 4,1 6,1 2,0 5,-1 8,-3 4,-3 8,-8 12,-15 4,-7 8,-17 11,-30 3,-13 5,-25 6,-37 -12,0 -22,3 -30,9 -6,5 -9,10 -9,16 0,3 2,6 4,9 2,2 3,4 3,5 0,2 -1,3 -2,4 -1,1 -2,1 -3,1 -2,0 -4,-1 -5,-3 -2,-4 -4,-7 -4,-12 0,-6 2,-12 7,-17 4,-6 9,-10 16,-13 8,-3 16,-4 26,-4 5,0 9,-1 12,-2 0,5 0,8 0,8 0,0 0,1 0,3l5 61c13,-22 26,-41 38,-55 9,-11 16,-18 23,-21 -4,10 -8,23 -12,40l-10 38c0,2 -1,6 -2,10l-2 8c4,1 8,2 11,2 3,0 6,-1 9,-1l-1 4c-3,1 -5,1 -7,1 -2,0 -5,0 -9,-1 -3,0 -6,0 -9,0 -3,0 -6,0 -9,1 3,-7 6,-18 9,-31l6 -24c3,-11 5,-18 7,-22 -4,5 -11,14 -20,27 -7,10 -15,24 -24,40l-7 12z"/>
   <path id="9" class="fil2 str2" d="M197 373l5 -2 -6 21c-2,8 -5,17 -7,28 -1,5 -1,9 -1,11 0,1 0,2 2,2 0,0 2,0 4,-2 3,-1 6,-4 9,-7l3 3c-7,6 -10,9 -12,10 -4,3 -7,4 -10,5 -2,1 -4,2 -6,2 -1,0 -2,-1 -3,-1 -1,-1 -1,-2 -1,-3 0,-1 0,-2 1,-3l3 -11c-5,5 -10,10 -17,14 -3,2 -7,4 -10,4 -3,0 -6,-2 -7,-4 -3,-3 -4,-7 -4,-11 0,-6 2,-12 5,-19 3,-7 7,-13 12,-19 5,-6 10,-10 16,-13 4,-2 10,-3 17,-3 1,0 3,0 5,1l2 -3zm-10 12c-3,-1 -6,-1 -8,-1 -4,0 -8,1 -12,4 -4,3 -7,7 -10,14 -3,7 -5,14 -5,21 0,3 1,6 2,8 1,1 3,2 5,2 4,0 8,-2 12,-6 4,-4 7,-10 9,-17l7 -25z"/>
   <path id="10" class="fil2 str2" d="M255 424l2 5c-13,10 -24,15 -33,15 -4,0 -8,-2 -10,-5 -2,-4 -3,-8 -3,-13 0,-8 2,-17 7,-26 4,-9 10,-16 16,-21 5,-3 11,-5 17,-5 4,0 7,1 9,2 2,2 3,3 3,6 0,1 0,3 -1,4 -1,1 -3,1 -5,1 -2,0 -4,-1 -7,-2 -3,-2 -6,-3 -8,-3 -2,0 -5,1 -8,3 -2,3 -5,7 -7,14 -2,7 -3,14 -3,21 0,5 1,9 3,12 1,2 3,3 6,3 6,0 13,-4 22,-11z"/>
   <path id="11" class="fil2 str2" d="M331 424l2 3c-5,6 -10,10 -15,13 -4,2 -7,4 -9,4 -2,0 -3,-1 -4,-3 -2,-1 -2,-4 -2,-7 0,-2 0,-5 1,-9 1,-4 4,-13 8,-26 1,-7 2,-11 2,-12 0,-2 -1,-3 -2,-3 -3,0 -5,2 -9,4 -4,3 -9,7 -12,12 -3,3 -4,7 -6,13l-6 28 -12 0c3,-9 5,-17 6,-23l12 -51c2,-9 5,-17 8,-22 4,-5 8,-9 14,-12 5,-3 11,-5 17,-5 2,0 4,1 5,2 1,1 2,3 2,4 0,2 -1,3 -2,4 -1,1 -3,2 -5,2 -2,0 -3,0 -5,0 -5,-1 -8,-2 -10,-2 -2,0 -4,1 -6,3 -1,2 -3,7 -5,14l-9 40c7,-7 14,-12 21,-17 5,-3 8,-4 11,-4 2,0 3,1 5,2 1,1 1,3 1,5 0,2 0,4 0,5 -1,3 -3,9 -5,17 -4,12 -6,19 -6,22 -1,3 -1,5 -1,7 0,1 0,2 0,2 1,1 1,1 2,1 1,0 3,-2 7,-5 2,-1 4,-3 7,-6z"/>
   <path id="12" class="fil2 str2" d="M381 421l2 4c-13,12 -24,18 -33,18 -4,0 -7,-1 -9,-4 -2,-2 -3,-6 -3,-12 0,-11 4,-23 11,-34 7,-13 17,-19 28,-19 3,0 6,1 8,3 2,2 3,4 3,8 0,3 -1,6 -3,10 -3,3 -7,7 -13,10 -3,2 -10,5 -20,10 -1,3 -1,5 -1,8 0,4 1,6 2,8 1,1 3,2 5,2 2,0 5,-1 7,-2 4,-1 9,-5 16,-10zm-28 -11c8,-4 15,-8 19,-13 3,-3 5,-6 5,-9 0,-2 -1,-4 -2,-5 -1,-2 -3,-2 -5,-2 -2,0 -4,0 -6,2 -2,2 -4,5 -6,9 -2,6 -4,12 -5,18z"/>
   <path id="13" class="fil2 str2" d="M417 362l13 -5 -6 22 16 0 -1 6 -16 0 -7 27c-3,8 -4,13 -4,17 0,1 1,2 1,3 1,0 2,1 3,1 1,0 4,-1 7,-3 5,-3 9,-6 13,-9l3 3c-12,9 -19,15 -23,17 -4,2 -7,3 -10,3 -2,0 -3,-1 -4,-3 -2,-1 -2,-3 -2,-7 0,-3 1,-9 3,-17l8 -32 -13 0 1 -6 13 0 5 -17z"/>
   <path id="14" class="fil2 str2" d="M489 421l3 4c-13,12 -25,18 -34,18 -4,0 -7,-1 -9,-4 -2,-2 -3,-6 -3,-12 0,-11 4,-23 11,-34 8,-13 17,-19 28,-19 3,0 6,1 8,3 2,2 3,4 3,8 0,3 -1,6 -3,10 -3,3 -7,7 -13,10 -3,2 -10,5 -20,10 0,3 -1,5 -1,8 0,4 1,6 2,8 1,1 3,2 5,2 3,0 5,-1 8,-2 3,-1 8,-5 15,-10zm-28 -11c9,-4 15,-8 19,-13 3,-3 5,-6 5,-9 0,-2 -1,-4 -2,-5 -1,-2 -3,-2 -5,-2 -2,0 -4,0 -6,2 -2,2 -4,5 -6,9 -2,6 -4,12 -5,18z"/>
   <path id="15" class="fil2 str2" d="M538 374c5,0 8,1 11,3 2,2 4,4 4,6 0,2 -1,3 -2,4 -1,1 -2,1 -4,1 -1,0 -2,0 -3,0 0,-1 -1,-2 -3,-4 -2,-3 -5,-5 -7,-5 -3,0 -5,1 -6,3 -2,1 -3,3 -3,6 0,2 1,4 2,6 1,2 4,6 8,10 6,6 9,12 9,18 0,6 -3,11 -7,15 -5,4 -11,6 -19,6 -6,0 -11,-1 -14,-4 -3,-2 -5,-5 -5,-9 0,-2 1,-4 2,-5 1,-1 2,-2 4,-2 2,0 3,1 4,2 1,1 2,2 2,3 0,1 0,2 -1,2 0,1 0,2 0,2 0,2 1,3 3,5 1,1 3,2 6,2 3,0 5,-1 7,-2 2,-1 4,-2 5,-4 2,-2 2,-4 2,-6 0,-2 0,-4 -1,-6 -2,-2 -4,-5 -8,-10 -6,-6 -9,-12 -9,-18 0,-5 2,-9 7,-13 4,-4 9,-6 16,-6z"/>
  </g>
 </g>
</svg>
